<svg version="1.2" xmlns="http://www.w3.org/2000/svg" viewBox="0 0 180 30" width="180" height="30">
	<title>image</title>
	<style>
		.s0 { fill: #000000 } 
	</style>
	<path id="HISENBUG" class="s0" aria-label="HISENBUG"  d="m22 24v-19.7h2.7v8.1h9.6v-8.1h2.7v19.7h-2.7v-9.4h-9.6v9.4zm-0.7 0v-19.7h2.6v8.1h9.7v-8.1h2.7v19.7h-2.7v-9.4h-9.7v9.4zm21.8 0v-19.7h2.6v19.7zm-0.7 0v-19.7h2.7v19.7zm21.2-19v2.6q-1.5-0.8-2.9-1.1-1.3-0.4-2.6-0.4-2.2 0-3.3 0.9-1.2 0.8-1.2 2.4 0 1.3 0.8 1.9 0.8 0.7 2.9 1.1l1.7 0.3q2.9 0.6 4.3 2 1.5 1.5 1.5 3.9 0 2.8-2 4.3-1.9 1.5-5.6 1.5-1.4 0-3-0.3-1.5-0.4-3.2-1v-2.7q1.6 0.9 3.2 1.4 1.5 0.4 3 0.4 2.3 0 3.5-0.9 1.3-0.9 1.3-2.5 0-1.5-0.9-2.3-0.9-0.8-2.9-1.2l-1.6-0.3q-3-0.6-4.4-1.9-1.3-1.3-1.3-3.5 0-2.6 1.8-4.1 1.9-1.5 5.1-1.5 1.4 0 2.8 0.2 1.5 0.3 3 0.8zm-0.7 0v2.6q-1.5-0.8-2.9-1.1-1.3-0.4-2.6-0.4-2.2 0-3.4 0.9-1.1 0.8-1.1 2.4 0 1.3 0.8 1.9 0.7 0.7 2.9 1.1l1.6 0.3q3 0.6 4.4 2 1.5 1.5 1.5 3.9 0 2.8-2 4.3-1.9 1.5-5.6 1.5-1.4 0-3-0.3-1.5-0.4-3.2-1v-2.7q1.6 0.9 3.2 1.4 1.5 0.4 3 0.4 2.3 0 3.5-0.9 1.3-0.9 1.3-2.5 0-1.5-0.9-2.3-0.9-0.8-2.9-1.2l-1.7-0.3q-2.9-0.6-4.3-1.9-1.3-1.3-1.3-3.5 0-2.6 1.8-4.1 1.9-1.5 5.1-1.5 1.4 0 2.8 0.2 1.5 0.3 3 0.8zm6.7 19v-19.7h12.5v2.3h-9.8v5.8h9.4v2.2h-9.4v7.2h10v2.2zm-0.7 0v-19.7h12.5v2.3h-9.8v5.8h9.4v2.2h-9.4v7.2h10v2.2zm18.5 0v-19.7h3.6l8.7 16.5v-16.5h2.6v19.7h-3.6l-8.7-16.5v16.5zm-0.7 0v-19.7h3.6l8.7 16.5v-16.5h2.6v19.7h-3.6l-8.7-16.5v16.5zm28.5-9.4h-4.2v7.2h4.2q2.2 0 3.2-0.9 1.1-0.9 1.1-2.7 0-1.8-1.1-2.7-1-0.9-3.2-0.9zm-0.3-8.1h-3.9v5.9h3.9q2 0 2.9-0.7 1-0.7 1-2.2 0-1.5-1-2.3-0.9-0.7-2.9-0.7zm-6.6 17.5v-19.7h6.8q3 0 4.7 1.3 1.6 1.2 1.6 3.6 0 1.8-0.8 2.9-0.8 1-2.5 1.3 2 0.4 3.1 1.8 1.1 1.3 1.1 3.3 0 2.6-1.8 4.1-1.8 1.4-5.1 1.4zm6.2-9.4h-4.3v7.2h4.3q2.1 0 3.2-0.9 1-0.9 1-2.7 0-1.8-1-2.7-1.1-0.9-3.2-0.9zm-0.3-8.1h-4v5.9h4q1.9 0 2.9-0.7 0.9-0.7 0.9-2.2 0-1.5-0.9-2.3-1-0.7-2.9-0.7zm-6.6 17.5v-19.7h6.8q3 0 4.6 1.3 1.7 1.2 1.7 3.6 0 1.8-0.8 2.9-0.9 1-2.5 1.3 1.9 0.4 3 1.8 1.1 1.3 1.1 3.3 0 2.6-1.8 4.1-1.8 1.4-5.1 1.4zm19.7-7.4v-12.3h2.7v12q0 3.1 1.1 4.5 1.1 1.4 3.7 1.4 2.6 0 3.7-1.4 1.2-1.4 1.2-4.5v-12h2.6v12.3q0 3.9-1.9 5.8-1.9 2-5.6 2-3.7 0-5.6-2-1.9-1.9-1.9-5.8zm-0.7 0v-12.3h2.6v12q0 3.1 1.2 4.5 1.1 1.4 3.7 1.4 2.6 0 3.7-1.4 1.2-1.4 1.2-4.5v-12h2.6v12.3q0 3.9-1.9 5.8-1.9 2-5.6 2-3.7 0-5.6-2-1.9-1.9-1.9-5.8zm34.9 4.6v-5.3h-4.4v-2.2h7v8.5q-1.5 1.1-3.4 1.6-1.8 0.6-3.9 0.6-4.7 0-7.3-2.7-2.6-2.7-2.6-7.5 0-4.8 2.6-7.5 2.6-2.7 7.3-2.7 1.9 0 3.6 0.4 1.8 0.5 3.2 1.4v2.9q-1.5-1.3-3.1-1.9-1.7-0.7-3.5-0.7-3.6 0-5.4 2.1-1.9 2-1.9 6 0 4 1.9 6 1.8 2 5.4 2 1.4 0 2.5-0.2 1.1-0.3 2-0.8zm-0.7 0v-5.3h-4.4v-2.2h7v8.5q-1.5 1.1-3.4 1.6-1.8 0.6-4 0.6-4.6 0-7.2-2.7-2.6-2.7-2.6-7.5 0-4.8 2.6-7.5 2.6-2.7 7.2-2.7 2 0 3.7 0.4 1.7 0.5 3.2 1.4v2.9q-1.5-1.3-3.1-1.9-1.7-0.7-3.5-0.7-3.6 0-5.5 2.1-1.8 2-1.8 6 0 4 1.8 6 1.9 2 5.5 2 1.4 0 2.5-0.2 1.1-0.3 2-0.8z"/>
</svg>